<?xml version="1.0" encoding="UTF-8" standalone="no"?>
<!DOCTYPE svg PUBLIC "-//W3C//DTD SVG 1.1//EN" "http://www.w3.org/Graphics/SVG/1.1/DTD/svg11.dtd">
<svg xmlns="http://www.w3.org/2000/svg" version="1.1" viewBox="0.00 0.00 512.00 512.00">
<g stroke-width="2.00" fill="none" stroke-linecap="butt">
<path stroke="#a04160" vector-effect="non-scaling-stroke" d="
  M 347.43 39.63
  Q 349.35 43.77 351.28 47.71
  C 353.56 52.39 356.46 56.21 360.95 58.29
  Q 366.70 60.96 370.88 63.86
  C 382.17 71.69 387.79 84.27 388.63 98.24
  C 389.52 112.93 388.91 127.94 385.75 142.20
  Q 385.74 142.22 381.90 155.70
  Q 378.97 165.96 378.05 176.80"
/>
<path stroke="#9f776c" vector-effect="non-scaling-stroke" d="
  M 378.05 176.80
  Q 371.71 176.60 365.65 179.58"
/>
<path stroke="#9d7e7d" vector-effect="non-scaling-stroke" d="
  M 365.65 179.58
  Q 363.43 168.43 359.19 161.58
  C 354.45 153.91 353.21 148.65 353.77 140.14
  Q 354.10 135.12 354.10 129.26
  Q 354.11 110.62 341.17 97.00
  Q 336.73 92.32 331.57 92.75
  Q 328.26 93.03 322.39 96.26
  Q 305.32 105.63 284.76 111.57
  Q 245.36 122.96 205.20 114.63"
/>
<path stroke="#9f776c" vector-effect="non-scaling-stroke" d="
  M 205.20 114.63
  Q 204.91 114.44 204.96 114.34"
/>
<path stroke="#3b3b65" vector-effect="non-scaling-stroke" d="
  M 204.96 114.34
  Q 205.42 114.35 205.96 113.59
  C 216.72 98.26 220.83 79.66 213.62 62.37
  C 212.15 58.84 210.15 55.50 209.21 51.74
  Q 206.08 39.10 212.38 27.87
  Q 219.10 15.86 232.13 5.87"
/>
<path stroke="#997166" vector-effect="non-scaling-stroke" d="
  M 204.96 114.34
  Q 189.49 110.98 174.97 104.70
  Q 172.03 103.43 170.25 103.40
  C 165.92 103.33 164.07 107.29 163.39 111.04
  Q 160.74 125.60 161.76 138.94
  C 162.22 145.06 161.97 151.09 159.36 156.12
  Q 157.15 160.37 154.83 164.74
  Q 151.88 170.29 150.01 178.91
  Q 149.90 179.42 149.42 179.21
  Q 144.75 177.22 140.32 176.80"
/>
<path stroke="#9a3b5a" vector-effect="non-scaling-stroke" d="
  M 140.32 176.80
  Q 138.87 163.24 134.87 150.41
  C 132.69 143.43 131.34 137.33 130.44 130.38
  C 130.03 127.18 128.83 123.99 126.71 121.52
  C 117.96 111.32 112.75 98.32 108.58 84.91
  C 107.89 82.70 110.25 81.73 111.94 82.47
  Q 114.75 83.70 117.34 84.25
  Q 118.52 84.50 119.14 83.50
  Q 119.58 82.79 119.25 81.44
  Q 117.33 73.74 116.59 65.59"
/>
<path stroke="#ff9ba2" vector-effect="non-scaling-stroke" d="
  M 443.99 424.05
  Q 438.39 422.35 435.40 420.64
  Q 421.33 412.56 407.04 404.91
  Q 384.54 392.87 360.28 384.93
  Q 358.14 384.23 353.69 385.28"
/>
<path stroke="#fe7761" vector-effect="non-scaling-stroke" d="
  M 353.69 385.28
  Q 348.80 383.56 345.00 382.93
  Q 342.90 382.58 342.49 380.93"
/>
<path stroke="#a04160" vector-effect="non-scaling-stroke" d="
  M 342.49 380.93
  Q 357.52 352.83 362.37 321.01
  Q 366.76 292.18 365.86 262.99
  Q 365.65 255.87 365.12 248.84"
/>
<path stroke="#fe6d58" vector-effect="non-scaling-stroke" d="
  M 365.12 248.84
  C 371.23 247.96 375.55 244.37 378.12 239.08
  Q 379.10 237.05 380.53 230.18
  Q 382.25 221.97 385.67 213.20"
/>
<path stroke="#fe7761" vector-effect="non-scaling-stroke" d="
  M 385.67 213.20
  Q 388.68 206.96 390.62 198.83
  C 392.78 189.82 388.91 177.52 378.05 176.80"
/>
<path stroke="#fe7761" vector-effect="non-scaling-stroke" d="
  M 140.32 176.80
  Q 132.50 176.24 128.37 181.85
  Q 123.31 188.72 124.82 197.26
  Q 126.20 205.05 129.87 212.83"
/>
<path stroke="#fe6d58" vector-effect="non-scaling-stroke" d="
  M 129.87 212.83
  Q 134.64 224.82 134.92 228.33
  Q 135.38 233.94 137.72 239.04
  Q 141.61 247.49 150.43 248.71"
/>
<path stroke="#9a3b5a" vector-effect="non-scaling-stroke" d="
  M 150.43 248.71
  Q 149.13 271.56 150.48 294.99
  C 152.21 325.07 158.68 354.83 173.50 381.40"
/>
<path stroke="#fe6d58" vector-effect="non-scaling-stroke" d="
  M 173.50 381.40
  L 162.28 385.04"
/>
<path stroke="#fe9496" vector-effect="non-scaling-stroke" d="
  M 162.28 385.04
  Q 157.79 384.16 154.74 385.01
  Q 145.78 387.52 130.86 394.11
  Q 111.09 402.84 85.58 417.51
  C 80.17 420.62 74.70 423.65 68.24 424.38"
/>
<path stroke="#fbb47e" vector-effect="non-scaling-stroke" d="
  M 365.65 179.58
  Q 367.41 189.82 366.46 197.25
  Q 365.47 204.94 364.46 212.23"
/>
<path stroke="#fbaa75" vector-effect="non-scaling-stroke" d="
  M 364.46 212.23
  L 362.87 223.66"
/>
<path stroke="#9d7e7d" vector-effect="non-scaling-stroke" d="
  M 362.87 223.66
  Q 359.18 240.85 351.39 256.12
  C 346.59 265.52 339.24 275.38 330.16 280.74
  Q 329.71 281.00 329.43 280.57
  C 319.38 264.94 305.30 256.06 286.35 255.59"
/>
<path stroke="#fbb47e" vector-effect="non-scaling-stroke" d="
  M 286.35 255.59
  Q 288.49 250.26 285.63 247.46
  Q 284.08 245.94 281.32 245.40
  C 277.48 244.65 271.43 242.31 268.64 246.28
  Q 264.63 252.01 257.30 250.13
  Q 254.45 249.40 252.87 246.96
  C 249.73 242.09 244.82 244.53 240.39 245.23
  Q 237.36 245.72 235.65 247.17
  Q 232.38 249.95 234.42 255.53"
/>
<path stroke="#9d7e7d" vector-effect="non-scaling-stroke" d="
  M 234.42 255.53
  L 226.48 256.14"
/>
<path stroke="#977877" vector-effect="non-scaling-stroke" d="
  M 226.48 256.14
  C 216.16 257.89 208.83 262.02 201.18 268.42"
/>
<path stroke="#fbb47e" vector-effect="non-scaling-stroke" d="
  M 201.18 268.42
  Q 199.58 258.62 199.14 248.90
  Q 198.63 237.41 198.12 232.62
  Q 196.75 219.76 195.37 206.60"
/>
<path stroke="#fcd8bf" vector-effect="non-scaling-stroke" d="
  M 195.37 206.60
  L 203.11 208.85"
/>
<path stroke="#9d7e7d" vector-effect="non-scaling-stroke" d="
  M 203.11 208.85
  Q 210.56 210.94 218.67 210.10"
/>
<path stroke="#fcd8bf" vector-effect="non-scaling-stroke" d="
  M 218.67 210.10
  L 239.84 206.22
  Q 241.57 205.90 240.05 205.02
  Q 232.40 200.58 224.84 194.84
  Q 224.39 194.49 223.68 194.74"
/>
<path stroke="#9d7e7d" vector-effect="non-scaling-stroke" d="
  M 223.68 194.74
  Q 223.50 194.54 223.32 194.31
  Q 223.15 194.08 222.91 193.96
  Q 212.31 188.53 200.99 192.20"
/>
<path stroke="#fcd8bf" vector-effect="non-scaling-stroke" d="
  M 200.99 192.20
  L 194.34 195.15"
/>
<path stroke="#fbb47e" vector-effect="non-scaling-stroke" d="
  M 194.34 195.15
  C 193.97 187.93 194.57 182.36 195.67 174.77"
/>
<path stroke="#977877" vector-effect="non-scaling-stroke" d="
  M 195.67 174.77
  L 207.07 175.77"
/>
<path stroke="#9d7e7d" vector-effect="non-scaling-stroke" d="
  M 207.07 175.77
  Q 223.62 178.30 241.23 183.37
  A 0.89 0.89 0.0 0 0 242.34 182.30
  C 241.30 178.09 240.46 171.20 235.51 169.91
  Q 223.97 166.91 208.19 165.13"
/>
<path stroke="#977877" vector-effect="non-scaling-stroke" d="
  M 208.19 165.13
  L 198.91 164.20"
/>
<path stroke="#fbb47e" vector-effect="non-scaling-stroke" d="
  M 198.91 164.20
  Q 205.46 152.52 204.25 137.25
  Q 203.57 128.67 205.20 114.63"
/>
<path stroke="#977877" vector-effect="non-scaling-stroke" d="
  M 301.56 166.17
  Q 292.26 167.53 283.75 169.49
  Q 279.33 170.51 277.92 174.74
  Q 276.68 178.45 275.91 182.45
  A 0.87 0.87 0.0 0 0 276.96 183.46
  L 305.07 176.77"
/>
<path stroke="#9d7e7d" vector-effect="non-scaling-stroke" d="
  M 305.07 176.77
  Q 310.76 175.64 316.72 174.82
  Q 331.76 172.74 342.37 183.65
  Q 343.95 185.27 343.58 183.04
  C 342.10 174.30 336.91 166.61 327.73 165.05
  Q 323.20 164.28 318.50 164.51
  Q 310.52 164.89 301.56 166.17"
/>
<path stroke="#3b3b65" vector-effect="non-scaling-stroke" d="
  M 305.07 176.77
  Q 298.25 173.56 301.56 166.17"
/>
<path stroke="#fcd8bf" vector-effect="non-scaling-stroke" d="
  M 294.56 194.99
  Q 293.75 194.55 292.48 195.53
  Q 285.61 200.83 278.53 204.85
  Q 276.63 205.93 278.79 206.31
  C 280.31 206.58 281.93 206.42 283.41 206.78
  Q 288.49 208.03 293.59 209.44
  Q 295.38 209.94 299.56 209.96"
/>
<path stroke="#9d7e7d" vector-effect="non-scaling-stroke" d="
  M 299.56 209.96
  Q 300.39 210.21 300.75 210.23
  Q 308.36 210.72 315.14 208.90"
/>
<path stroke="#fcd8bf" vector-effect="non-scaling-stroke" d="
  M 315.14 208.90
  Q 318.68 208.35 320.87 207.38
  Q 326.74 204.78 332.66 203.33
  A 0.75 0.75 0.0 0 0 333.01 202.07
  Q 326.86 195.89 318.48 192.58
  Q 318.05 192.41 317.51 192.56"
/>
<path stroke="#9d7e7d" vector-effect="non-scaling-stroke" d="
  M 317.51 192.56
  Q 317.14 192.23 316.72 192.10
  Q 305.67 188.76 295.40 193.90
  Q 295.11 194.05 294.56 194.99"
/>
<path stroke="#a09bad" vector-effect="non-scaling-stroke" d="
  M 317.51 192.56
  Q 322.12 201.27 315.14 208.90"
/>
<path stroke="#a09bad" vector-effect="non-scaling-stroke" d="
  M 299.56 209.96
  Q 292.00 204.14 294.56 194.99"
/>
<path stroke="#997166" vector-effect="non-scaling-stroke" d="
  M 198.91 164.20
  Q 192.70 164.22 188.51 165.33
  C 180.84 167.37 175.67 175.27 174.65 182.96
  Q 174.27 185.77 176.15 183.65
  Q 183.56 175.28 195.67 174.77"
/>
<path stroke="#fed1ae" vector-effect="non-scaling-stroke" d="
  M 194.34 195.15
  L 185.52 201.79
  A 0.94 0.94 0.0 0 0 185.79 203.44
  L 195.37 206.60"
/>
<path stroke="#997166" vector-effect="non-scaling-stroke" d="
  M 201.18 268.42
  Q 194.79 274.72 190.06 282.58
  Q 189.86 282.90 189.52 282.74
  C 174.65 275.55 164.75 259.36 159.17 244.27
  Q 155.53 234.42 152.69 223.45"
/>
<path stroke="#fda364" vector-effect="non-scaling-stroke" d="
  M 152.69 223.45
  L 151.32 212.94
  Q 151.19 211.99 150.52 212.68
  C 149.98 213.24 149.30 213.91 148.65 214.30
  Q 139.67 219.75 129.87 212.83"
/>
<path stroke="#3b3b65" vector-effect="non-scaling-stroke" d="
  M 208.19 165.13
  Q 204.26 169.28 207.07 175.77"
/>
<path stroke="#fda364" vector-effect="non-scaling-stroke" d="
  M 385.67 213.20
  Q 373.96 220.62 364.46 212.23"
/>
<path stroke="#a09bad" vector-effect="non-scaling-stroke" d="
  M 223.68 194.74
  Q 226.53 203.85 218.67 210.10"
/>
<path stroke="#a09bad" vector-effect="non-scaling-stroke" d="
  M 203.11 208.85
  Q 196.10 201.11 200.99 192.20"
/>
<path stroke="#3b3b65" vector-effect="non-scaling-stroke" d="
  M 216.72 200.03
  A 4.86 4.86 0.0 0 0 211.86 195.17
  A 4.86 4.86 0.0 0 0 207.00 200.03
  A 4.86 4.86 0.0 0 0 211.86 204.89
  A 4.86 4.86 0.0 0 0 216.72 200.03"
/>
<path stroke="#3b3b65" vector-effect="non-scaling-stroke" d="
  M 311.34 200.03
  A 4.88 4.88 0.0 0 0 306.46 195.15
  A 4.88 4.88 0.0 0 0 301.58 200.03
  A 4.88 4.88 0.0 0 0 306.46 204.91
  A 4.88 4.88 0.0 0 0 311.34 200.03"
/>
<path stroke="#99675d" vector-effect="non-scaling-stroke" d="
  M 152.69 223.45
  L 150.43 248.71"
/>
<path stroke="#9f6d63" vector-effect="non-scaling-stroke" d="
  M 365.12 248.84
  L 362.87 223.66"
/>
<path stroke="#3b3b65" vector-effect="non-scaling-stroke" d="
  M 226.48 256.14
  Q 222.95 265.08 223.31 272.25
  Q 223.97 285.37 236.85 293.58"
/>
<path stroke="#997166" vector-effect="non-scaling-stroke" d="
  M 236.85 293.58
  L 230.09 293.92"
/>
<path stroke="#977877" vector-effect="non-scaling-stroke" d="
  M 230.09 293.92
  Q 221.47 293.87 214.83 299.93
  Q 214.42 300.31 214.70 300.79
  Q 216.81 304.30 218.89 309.96
  C 225.13 326.95 242.49 330.67 259.21 330.13"
/>
<path stroke="#3b3b65" vector-effect="non-scaling-stroke" d="
  M 259.21 330.13
  Q 257.54 332.76 252.01 340.01
  C 247.53 345.88 244.80 355.31 246.02 363.04
  C 247.24 370.72 251.26 376.22 255.74 382.02
  C 262.65 390.97 267.39 403.02 266.69 414.63
  Q 265.97 426.72 258.30 437.55"
/>
<path stroke="#997166" vector-effect="non-scaling-stroke" d="
  M 258.30 437.55
  Q 243.34 436.79 227.46 430.39"
/>
<path stroke="#99675d" vector-effect="non-scaling-stroke" d="
  M 227.46 430.39
  Q 192.41 414.97 173.50 381.40"
/>
<path stroke="#9f776c" vector-effect="non-scaling-stroke" d="
  M 342.49 380.93
  C 328.99 403.36 312.28 419.90 288.00 430.23
  Q 274.50 435.97 258.30 437.55"
/>
<path stroke="#9d7e7d" vector-effect="non-scaling-stroke" d="
  M 259.21 330.13
  Q 270.61 330.80 281.50 326.48
  C 290.33 322.99 295.18 315.74 298.20 306.86
  Q 299.79 302.21 302.94 298.37
  Q 303.47 297.72 302.77 297.26
  Q 296.76 293.34 291.62 294.06"
/>
<path stroke="#9f776c" vector-effect="non-scaling-stroke" d="
  M 291.62 294.06
  Q 275.89 293.70 263.08 288.88
  C 261.59 288.32 259.96 288.09 258.61 288.59
  Q 247.29 292.82 236.85 293.58"
/>
<path stroke="#9f776c" vector-effect="non-scaling-stroke" d="
  M 234.42 255.53
  Q 236.54 257.03 238.97 257.39
  C 241.03 257.69 242.84 256.71 244.88 256.81
  Q 245.44 256.83 245.88 257.17
  Q 260.50 268.23 275.20 257.07
  Q 275.83 256.59 276.62 256.73
  L 281.41 257.60
  A 1.07 1.06 -51.2 0 0 282.03 257.53
  L 286.35 255.59"
/>
<path stroke="#fbb47e" vector-effect="non-scaling-stroke" d="
  M 291.62 294.06
  Q 285.62 300.03 276.51 302.27
  Q 274.86 302.68 273.42 302.27
  Q 267.22 300.50 261.12 298.60
  Q 260.52 298.42 259.92 298.61
  Q 254.23 300.39 248.17 302.17
  Q 246.17 302.76 244.76 302.25
  Q 238.64 300.01 232.24 297.34
  Q 230.24 296.50 230.09 293.92"
/>
<path stroke="#fbb47e" vector-effect="non-scaling-stroke" d="
  M 269.9616 317.4199
  A 5.47 5.47 0.0 0 0 264.5204 311.9213
  L 256.4205 311.8789
  A 5.47 5.47 0.0 0 0 250.9219 317.3202
  L 250.9184 318.0001
  A 5.47 5.47 0.0 0 0 256.3596 323.4987
  L 264.4595 323.5411
  A 5.47 5.47 0.0 0 0 269.9581 318.0998
  L 269.9616 317.4199"
/>
<path stroke="#fed1ae" vector-effect="non-scaling-stroke" d="
  M 353.69 385.28
  Q 349.26 387.69 348.23 389.51
  C 327.48 425.89 284.90 476.35 236.43 457.60
  Q 224.81 453.10 214.91 445.42"
/>
<path stroke="#fda364" vector-effect="non-scaling-stroke" d="
  M 214.91 445.42
  Q 223.52 439.70 227.46 430.39"
/>
<path stroke="#fec7a5" vector-effect="non-scaling-stroke" d="
  M 214.91 445.42
  Q 214.90 445.38 214.89 445.35"
/>
<path stroke="#fdc099" vector-effect="non-scaling-stroke" d="
  M 214.89 445.35
  C 195.51 430.29 180.16 410.84 167.96 389.80
  Q 166.71 387.64 162.28 385.04"
/>
<path stroke="#feeee2" vector-effect="non-scaling-stroke" d="
  M 214.89 445.35
  Q 205.77 448.75 194.32 452.12
  Q 183.82 455.22 172.38 460.03
  Q 154.06 467.74 140.19 481.88
  Q 139.87 482.21 139.74 482.74"
/>
</g>
<path fill="#41416b" d="
  M 262.88 0.00
  L 272.51 0.00
  Q 292.58 1.45 312.34 10.65
  Q 334.47 20.95 347.43 39.63
  Q 349.35 43.77 351.28 47.71
  C 353.56 52.39 356.46 56.21 360.95 58.29
  Q 366.70 60.96 370.88 63.86
  C 382.17 71.69 387.79 84.27 388.63 98.24
  C 389.52 112.93 388.91 127.94 385.75 142.20
  Q 385.74 142.22 381.90 155.70
  Q 378.97 165.96 378.05 176.80
  Q 371.71 176.60 365.65 179.58
  Q 363.43 168.43 359.19 161.58
  C 354.45 153.91 353.21 148.65 353.77 140.14
  Q 354.10 135.12 354.10 129.26
  Q 354.11 110.62 341.17 97.00
  Q 336.73 92.32 331.57 92.75
  Q 328.26 93.03 322.39 96.26
  Q 305.32 105.63 284.76 111.57
  Q 245.36 122.96 205.20 114.63
  Q 204.91 114.44 204.96 114.34
  Q 205.42 114.35 205.96 113.59
  C 216.72 98.26 220.83 79.66 213.62 62.37
  C 212.15 58.84 210.15 55.50 209.21 51.74
  Q 206.08 39.10 212.38 27.87
  Q 219.10 15.86 232.13 5.87
  Q 246.23 1.19 262.88 0.00
  Z"
/>
<path fill="#35355e" d="
  M 232.13 5.87
  Q 219.10 15.86 212.38 27.87
  Q 206.08 39.10 209.21 51.74
  C 210.15 55.50 212.15 58.84 213.62 62.37
  C 220.83 79.66 216.72 98.26 205.96 113.59
  Q 205.42 114.35 204.96 114.34
  Q 189.49 110.98 174.97 104.70
  Q 172.03 103.43 170.25 103.40
  C 165.92 103.33 164.07 107.29 163.39 111.04
  Q 160.74 125.60 161.76 138.94
  C 162.22 145.06 161.97 151.09 159.36 156.12
  Q 157.15 160.37 154.83 164.74
  Q 151.88 170.29 150.01 178.91
  Q 149.90 179.42 149.42 179.21
  Q 144.75 177.22 140.32 176.80
  Q 138.87 163.24 134.87 150.41
  C 132.69 143.43 131.34 137.33 130.44 130.38
  C 130.03 127.18 128.83 123.99 126.71 121.52
  C 117.96 111.32 112.75 98.32 108.58 84.91
  C 107.89 82.70 110.25 81.73 111.94 82.47
  Q 114.75 83.70 117.34 84.25
  Q 118.52 84.50 119.14 83.50
  Q 119.58 82.79 119.25 81.44
  Q 117.33 73.74 116.59 65.59
  Q 115.72 42.70 124.52 21.39
  Q 126.19 17.33 127.59 16.31
  C 130.60 14.12 133.88 15.00 136.27 17.45
  C 145.52 26.93 157.68 32.88 170.97 29.89
  Q 177.19 28.49 187.24 23.94
  Q 199.53 18.38 213.00 12.51
  Q 222.28 8.45 232.13 5.87
  Z"
/>
<path fill="#ff4155" d="
  M 347.43 39.63
  Q 417.64 68.56 458.93 129.78
  C 495.08 183.37 508.44 248.10 496.87 311.74
  Q 485.57 373.94 443.99 424.05
  Q 438.39 422.35 435.40 420.64
  Q 421.33 412.56 407.04 404.91
  Q 384.54 392.87 360.28 384.93
  Q 358.14 384.23 353.69 385.28
  Q 348.80 383.56 345.00 382.93
  Q 342.90 382.58 342.49 380.93
  Q 357.52 352.83 362.37 321.01
  Q 366.76 292.18 365.86 262.99
  Q 365.65 255.87 365.12 248.84
  C 371.23 247.96 375.55 244.37 378.12 239.08
  Q 379.10 237.05 380.53 230.18
  Q 382.25 221.97 385.67 213.20
  Q 388.68 206.96 390.62 198.83
  C 392.78 189.82 388.91 177.52 378.05 176.80
  Q 378.97 165.96 381.90 155.70
  Q 385.74 142.22 385.75 142.20
  C 388.91 127.94 389.52 112.93 388.63 98.24
  C 387.79 84.27 382.17 71.69 370.88 63.86
  Q 366.70 60.96 360.95 58.29
  C 356.46 56.21 353.56 52.39 351.28 47.71
  Q 349.35 43.77 347.43 39.63
  Z"
/>
<path fill="#ff4155" d="
  M 116.59 65.59
  Q 117.33 73.74 119.25 81.44
  Q 119.58 82.79 119.14 83.50
  Q 118.52 84.50 117.34 84.25
  Q 114.75 83.70 111.94 82.47
  C 110.25 81.73 107.89 82.70 108.58 84.91
  C 112.75 98.32 117.96 111.32 126.71 121.52
  C 128.83 123.99 130.03 127.18 130.44 130.38
  C 131.34 137.33 132.69 143.43 134.87 150.41
  Q 138.87 163.24 140.32 176.80
  Q 132.50 176.24 128.37 181.85
  Q 123.31 188.72 124.82 197.26
  Q 126.20 205.05 129.87 212.83
  Q 134.64 224.82 134.92 228.33
  Q 135.38 233.94 137.72 239.04
  Q 141.61 247.49 150.43 248.71
  Q 149.13 271.56 150.48 294.99
  C 152.21 325.07 158.68 354.83 173.50 381.40
  L 162.28 385.04
  Q 157.79 384.16 154.74 385.01
  Q 145.78 387.52 130.86 394.11
  Q 111.09 402.84 85.58 417.51
  C 80.17 420.62 74.70 423.65 68.24 424.38
  Q 26.88 374.59 15.13 311.88
  C 3.45 249.55 16.73 184.38 51.94 131.47
  Q 77.77 92.64 116.59 65.59
  Z"
/>
<path fill="#f9ba8f" d="
  M 365.65 179.58
  Q 367.41 189.82 366.46 197.25
  Q 365.47 204.94 364.46 212.23
  L 362.87 223.66
  Q 359.18 240.85 351.39 256.12
  C 346.59 265.52 339.24 275.38 330.16 280.74
  Q 329.71 281.00 329.43 280.57
  C 319.38 264.94 305.30 256.06 286.35 255.59
  Q 288.49 250.26 285.63 247.46
  Q 284.08 245.94 281.32 245.40
  C 277.48 244.65 271.43 242.31 268.64 246.28
  Q 264.63 252.01 257.30 250.13
  Q 254.45 249.40 252.87 246.96
  C 249.73 242.09 244.82 244.53 240.39 245.23
  Q 237.36 245.72 235.65 247.17
  Q 232.38 249.95 234.42 255.53
  L 226.48 256.14
  C 216.16 257.89 208.83 262.02 201.18 268.42
  Q 199.58 258.62 199.14 248.90
  Q 198.63 237.41 198.12 232.62
  Q 196.75 219.76 195.37 206.60
  L 203.11 208.85
  Q 210.56 210.94 218.67 210.10
  L 239.84 206.22
  Q 241.57 205.90 240.05 205.02
  Q 232.40 200.58 224.84 194.84
  Q 224.39 194.49 223.68 194.74
  Q 223.50 194.54 223.32 194.31
  Q 223.15 194.08 222.91 193.96
  Q 212.31 188.53 200.99 192.20
  L 194.34 195.15
  C 193.97 187.93 194.57 182.36 195.67 174.77
  L 207.07 175.77
  Q 223.62 178.30 241.23 183.37
  A 0.89 0.89 0.0 0 0 242.34 182.30
  C 241.30 178.09 240.46 171.20 235.51 169.91
  Q 223.97 166.91 208.19 165.13
  L 198.91 164.20
  Q 205.46 152.52 204.25 137.25
  Q 203.57 128.67 205.20 114.63
  Q 245.36 122.96 284.76 111.57
  Q 305.32 105.63 322.39 96.26
  Q 328.26 93.03 331.57 92.75
  Q 336.73 92.32 341.17 97.00
  Q 354.11 110.62 354.10 129.26
  Q 354.10 135.12 353.77 140.14
  C 353.21 148.65 354.45 153.91 359.19 161.58
  Q 363.43 168.43 365.65 179.58
  Z
  M 301.56 166.17
  Q 292.26 167.53 283.75 169.49
  Q 279.33 170.51 277.92 174.74
  Q 276.68 178.45 275.91 182.45
  A 0.87 0.87 0.0 0 0 276.96 183.46
  L 305.07 176.77
  Q 310.76 175.64 316.72 174.82
  Q 331.76 172.74 342.37 183.65
  Q 343.95 185.27 343.58 183.04
  C 342.10 174.30 336.91 166.61 327.73 165.05
  Q 323.20 164.28 318.50 164.51
  Q 310.52 164.89 301.56 166.17
  Z
  M 294.56 194.99
  Q 293.75 194.55 292.48 195.53
  Q 285.61 200.83 278.53 204.85
  Q 276.63 205.93 278.79 206.31
  C 280.31 206.58 281.93 206.42 283.41 206.78
  Q 288.49 208.03 293.59 209.44
  Q 295.38 209.94 299.56 209.96
  Q 300.39 210.21 300.75 210.23
  Q 308.36 210.72 315.14 208.90
  Q 318.68 208.35 320.87 207.38
  Q 326.74 204.78 332.66 203.33
  A 0.75 0.75 0.0 0 0 333.01 202.07
  Q 326.86 195.89 318.48 192.58
  Q 318.05 192.41 317.51 192.56
  Q 317.14 192.23 316.72 192.10
  Q 305.67 188.76 295.40 193.90
  Q 295.11 194.05 294.56 194.99
  Z"
/>
<path fill="#fcad6d" d="
  M 204.96 114.34
  Q 204.91 114.44 205.20 114.63
  Q 203.57 128.67 204.25 137.25
  Q 205.46 152.52 198.91 164.20
  Q 192.70 164.22 188.51 165.33
  C 180.84 167.37 175.67 175.27 174.65 182.96
  Q 174.27 185.77 176.15 183.65
  Q 183.56 175.28 195.67 174.77
  C 194.57 182.36 193.97 187.93 194.34 195.15
  L 185.52 201.79
  A 0.94 0.94 0.0 0 0 185.79 203.44
  L 195.37 206.60
  Q 196.75 219.76 198.12 232.62
  Q 198.63 237.41 199.14 248.90
  Q 199.58 258.62 201.18 268.42
  Q 194.79 274.72 190.06 282.58
  Q 189.86 282.90 189.52 282.74
  C 174.65 275.55 164.75 259.36 159.17 244.27
  Q 155.53 234.42 152.69 223.45
  L 151.32 212.94
  Q 151.19 211.99 150.52 212.68
  C 149.98 213.24 149.30 213.91 148.65 214.30
  Q 139.67 219.75 129.87 212.83
  Q 126.20 205.05 124.82 197.26
  Q 123.31 188.72 128.37 181.85
  Q 132.50 176.24 140.32 176.80
  Q 144.75 177.22 149.42 179.21
  Q 149.90 179.42 150.01 178.91
  Q 151.88 170.29 154.83 164.74
  Q 157.15 160.37 159.36 156.12
  C 161.97 151.09 162.22 145.06 161.76 138.94
  Q 160.74 125.60 163.39 111.04
  C 164.07 107.29 165.92 103.33 170.25 103.40
  Q 172.03 103.43 174.97 104.70
  Q 189.49 110.98 204.96 114.34
  Z"
/>
<path fill="#35355e" d="
  M 198.91 164.20
  L 208.19 165.13
  Q 204.26 169.28 207.07 175.77
  L 195.67 174.77
  Q 183.56 175.28 176.15 183.65
  Q 174.27 185.77 174.65 182.96
  C 175.67 175.27 180.84 167.37 188.51 165.33
  Q 192.70 164.22 198.91 164.20
  Z"
/>
<path fill="#41416b" d="
  M 305.07 176.77
  Q 298.25 173.56 301.56 166.17
  Q 310.52 164.89 318.50 164.51
  Q 323.20 164.28 327.73 165.05
  C 336.91 166.61 342.10 174.30 343.58 183.04
  Q 343.95 185.27 342.37 183.65
  Q 331.76 172.74 316.72 174.82
  Q 310.76 175.64 305.07 176.77
  Z"
/>
<path fill="#41416b" d="
  M 208.19 165.13
  Q 223.97 166.91 235.51 169.91
  C 240.46 171.20 241.30 178.09 242.34 182.30
  A 0.89 0.89 0.0 0 1 241.23 183.37
  Q 223.62 178.30 207.07 175.77
  Q 204.26 169.28 208.19 165.13
  Z"
/>
<path fill="#35355e" d="
  M 301.56 166.17
  Q 298.25 173.56 305.07 176.77
  L 276.96 183.46
  A 0.87 0.87 0.0 0 1 275.91 182.45
  Q 276.68 178.45 277.92 174.74
  Q 279.33 170.51 283.75 169.49
  Q 292.26 167.53 301.56 166.17
  Z"
/>
<path fill="#fcad6d" d="
  M 378.05 176.80
  C 388.91 177.52 392.78 189.82 390.62 198.83
  Q 388.68 206.96 385.67 213.20
  Q 373.96 220.62 364.46 212.23
  Q 365.47 204.94 366.46 197.25
  Q 367.41 189.82 365.65 179.58
  Q 371.71 176.60 378.05 176.80
  Z"
/>
<path fill="#41416b" d="
  M 223.68 194.74
  Q 226.53 203.85 218.67 210.10
  Q 210.56 210.94 203.11 208.85
  Q 196.10 201.11 200.99 192.20
  Q 212.31 188.53 222.91 193.96
  Q 223.15 194.08 223.32 194.31
  Q 223.50 194.54 223.68 194.74
  Z
  M 216.72 200.03
  A 4.86 4.86 0.0 0 0 211.86 195.17
  A 4.86 4.86 0.0 0 0 207.00 200.03
  A 4.86 4.86 0.0 0 0 211.86 204.89
  A 4.86 4.86 0.0 0 0 216.72 200.03
  Z"
/>
<path fill="#41416b" d="
  M 317.51 192.56
  Q 322.12 201.27 315.14 208.90
  Q 308.36 210.72 300.75 210.23
  Q 300.39 210.21 299.56 209.96
  Q 292.00 204.14 294.56 194.99
  Q 295.11 194.05 295.40 193.90
  Q 305.67 188.76 316.72 192.10
  Q 317.14 192.23 317.51 192.56
  Z
  M 311.34 200.03
  A 4.88 4.88 0.0 0 0 306.46 195.15
  A 4.88 4.88 0.0 0 0 301.58 200.03
  A 4.88 4.88 0.0 0 0 306.46 204.91
  A 4.88 4.88 0.0 0 0 311.34 200.03
  Z"
/>
<path fill="#fff5ee" d="
  M 200.99 192.20
  Q 196.10 201.11 203.11 208.85
  L 195.37 206.60
  L 185.79 203.44
  A 0.94 0.94 0.0 0 1 185.52 201.79
  L 194.34 195.15
  L 200.99 192.20
  Z"
/>
<path fill="#fff5ee" d="
  M 317.51 192.56
  Q 318.05 192.41 318.48 192.58
  Q 326.86 195.89 333.01 202.07
  A 0.75 0.75 0.0 0 1 332.66 203.33
  Q 326.74 204.78 320.87 207.38
  Q 318.68 208.35 315.14 208.90
  Q 322.12 201.27 317.51 192.56
  Z"
/>
<path fill="#fff5ee" d="
  M 223.68 194.74
  Q 224.39 194.49 224.84 194.84
  Q 232.40 200.58 240.05 205.02
  Q 241.57 205.90 239.84 206.22
  L 218.67 210.10
  Q 226.53 203.85 223.68 194.74
  Z"
/>
<path fill="#fff5ee" d="
  M 294.56 194.99
  Q 292.00 204.14 299.56 209.96
  Q 295.38 209.94 293.59 209.44
  Q 288.49 208.03 283.41 206.78
  C 281.93 206.42 280.31 206.58 278.79 206.31
  Q 276.63 205.93 278.53 204.85
  Q 285.61 200.83 292.48 195.53
  Q 293.75 194.55 294.56 194.99
  Z"
/>
<circle fill="#35355e" cx="211.86" cy="200.03" r="4.86"/>
<circle fill="#35355e" cx="306.46" cy="200.03" r="4.88"/>
<path fill="#fd995b" d="
  M 152.69 223.45
  L 150.43 248.71
  Q 141.61 247.49 137.72 239.04
  Q 135.38 233.94 134.92 228.33
  Q 134.64 224.82 129.87 212.83
  Q 139.67 219.75 148.65 214.30
  C 149.30 213.91 149.98 213.24 150.52 212.68
  Q 151.19 211.99 151.32 212.94
  L 152.69 223.45
  Z"
/>
<path fill="#fd995b" d="
  M 364.46 212.23
  Q 373.96 220.62 385.67 213.20
  Q 382.25 221.97 380.53 230.18
  Q 379.10 237.05 378.12 239.08
  C 375.55 244.37 371.23 247.96 365.12 248.84
  L 362.87 223.66
  L 364.46 212.23
  Z"
/>
<path fill="#35355e" d="
  M 152.69 223.45
  Q 155.53 234.42 159.17 244.27
  C 164.75 259.36 174.65 275.55 189.52 282.74
  Q 189.86 282.90 190.06 282.58
  Q 194.79 274.72 201.18 268.42
  C 208.83 262.02 216.16 257.89 226.48 256.14
  Q 222.95 265.08 223.31 272.25
  Q 223.97 285.37 236.85 293.58
  L 230.09 293.92
  Q 221.47 293.87 214.83 299.93
  Q 214.42 300.31 214.70 300.79
  Q 216.81 304.30 218.89 309.96
  C 225.13 326.95 242.49 330.67 259.21 330.13
  Q 257.54 332.76 252.01 340.01
  C 247.53 345.88 244.80 355.31 246.02 363.04
  C 247.24 370.72 251.26 376.22 255.74 382.02
  C 262.65 390.97 267.39 403.02 266.69 414.63
  Q 265.97 426.72 258.30 437.55
  Q 243.34 436.79 227.46 430.39
  Q 192.41 414.97 173.50 381.40
  C 158.68 354.83 152.21 325.07 150.48 294.99
  Q 149.13 271.56 150.43 248.71
  L 152.69 223.45
  Z"
/>
<path fill="#41416b" d="
  M 362.87 223.66
  L 365.12 248.84
  Q 365.65 255.87 365.86 262.99
  Q 366.76 292.18 362.37 321.01
  Q 357.52 352.83 342.49 380.93
  C 328.99 403.36 312.28 419.90 288.00 430.23
  Q 274.50 435.97 258.30 437.55
  Q 265.97 426.72 266.69 414.63
  C 267.39 403.02 262.65 390.97 255.74 382.02
  C 251.26 376.22 247.24 370.72 246.02 363.04
  C 244.80 355.31 247.53 345.88 252.01 340.01
  Q 257.54 332.76 259.21 330.13
  Q 270.61 330.80 281.50 326.48
  C 290.33 322.99 295.18 315.74 298.20 306.86
  Q 299.79 302.21 302.94 298.37
  Q 303.47 297.72 302.77 297.26
  Q 296.76 293.34 291.62 294.06
  Q 275.89 293.70 263.08 288.88
  C 261.59 288.32 259.96 288.09 258.61 288.59
  Q 247.29 292.82 236.85 293.58
  Q 223.97 285.37 223.31 272.25
  Q 222.95 265.08 226.48 256.14
  L 234.42 255.53
  Q 236.54 257.03 238.97 257.39
  C 241.03 257.69 242.84 256.71 244.88 256.81
  Q 245.44 256.83 245.88 257.17
  Q 260.50 268.23 275.20 257.07
  Q 275.83 256.59 276.62 256.73
  L 281.41 257.60
  A 1.07 1.06 -51.2 0 0 282.03 257.53
  L 286.35 255.59
  C 305.30 256.06 319.38 264.94 329.43 280.57
  Q 329.71 281.00 330.16 280.74
  C 339.24 275.38 346.59 265.52 351.39 256.12
  Q 359.18 240.85 362.87 223.66
  Z"
/>
<path fill="#fcad6d" d="
  M 286.35 255.59
  L 282.03 257.53
  A 1.07 1.06 -51.2 0 1 281.41 257.60
  L 276.62 256.73
  Q 275.83 256.59 275.20 257.07
  Q 260.50 268.23 245.88 257.17
  Q 245.44 256.83 244.88 256.81
  C 242.84 256.71 241.03 257.69 238.97 257.39
  Q 236.54 257.03 234.42 255.53
  Q 232.38 249.95 235.65 247.17
  Q 237.36 245.72 240.39 245.23
  C 244.82 244.53 249.73 242.09 252.87 246.96
  Q 254.45 249.40 257.30 250.13
  Q 264.63 252.01 268.64 246.28
  C 271.43 242.31 277.48 244.65 281.32 245.40
  Q 284.08 245.94 285.63 247.46
  Q 288.49 250.26 286.35 255.59
  Z"
/>
<path fill="#fcad6d" d="
  M 291.62 294.06
  Q 285.62 300.03 276.51 302.27
  Q 274.86 302.68 273.42 302.27
  Q 267.22 300.50 261.12 298.60
  Q 260.52 298.42 259.92 298.61
  Q 254.23 300.39 248.17 302.17
  Q 246.17 302.76 244.76 302.25
  Q 238.64 300.01 232.24 297.34
  Q 230.24 296.50 230.09 293.92
  L 236.85 293.58
  Q 247.29 292.82 258.61 288.59
  C 259.96 288.09 261.59 288.32 263.08 288.88
  Q 275.89 293.70 291.62 294.06
  Z"
/>
<path fill="#f9ba8f" d="
  M 291.62 294.06
  Q 296.76 293.34 302.77 297.26
  Q 303.47 297.72 302.94 298.37
  Q 299.79 302.21 298.20 306.86
  C 295.18 315.74 290.33 322.99 281.50 326.48
  Q 270.61 330.80 259.21 330.13
  C 242.49 330.67 225.13 326.95 218.89 309.96
  Q 216.81 304.30 214.70 300.79
  Q 214.42 300.31 214.83 299.93
  Q 221.47 293.87 230.09 293.92
  Q 230.24 296.50 232.24 297.34
  Q 238.64 300.01 244.76 302.25
  Q 246.17 302.76 248.17 302.17
  Q 254.23 300.39 259.92 298.61
  Q 260.52 298.42 261.12 298.60
  Q 267.22 300.50 273.42 302.27
  Q 274.86 302.68 276.51 302.27
  Q 285.62 300.03 291.62 294.06
  Z
  M 269.9616 317.4199
  A 5.47 5.47 0.0 0 0 264.5204 311.9213
  L 256.4205 311.8789
  A 5.47 5.47 0.0 0 0 250.9219 317.3202
  L 250.9184 318.0001
  A 5.47 5.47 0.0 0 0 256.3596 323.4987
  L 264.4595 323.5411
  A 5.47 5.47 0.0 0 0 269.9581 318.0998
  L 269.9616 317.4199
  Z"
/>
<rect fill="#fcad6d" x="-9.52" y="-5.81" transform="translate(260.44,317.71) rotate(0.3)" width="19.04" height="11.62" rx="5.47"/>
<path fill="#fcad6d" d="
  M 342.49 380.93
  Q 342.90 382.58 345.00 382.93
  Q 348.80 383.56 353.69 385.28
  Q 349.26 387.69 348.23 389.51
  C 327.48 425.89 284.90 476.35 236.43 457.60
  Q 224.81 453.10 214.91 445.42
  Q 223.52 439.70 227.46 430.39
  Q 243.34 436.79 258.30 437.55
  Q 274.50 435.97 288.00 430.23
  C 312.28 419.90 328.99 403.36 342.49 380.93
  Z"
/>
<path fill="#fd995b" d="
  M 173.50 381.40
  Q 192.41 414.97 227.46 430.39
  Q 223.52 439.70 214.91 445.42
  Q 214.90 445.38 214.89 445.35
  C 195.51 430.29 180.16 410.84 167.96 389.80
  Q 166.71 387.64 162.28 385.04
  L 173.50 381.40
  Z"
/>
<path fill="#fce6d6" d="
  M 162.28 385.04
  Q 166.71 387.64 167.96 389.80
  C 180.16 410.84 195.51 430.29 214.89 445.35
  Q 205.77 448.75 194.32 452.12
  Q 183.82 455.22 172.38 460.03
  Q 154.06 467.74 140.19 481.88
  Q 139.87 482.21 139.74 482.74
  Q 98.25 460.41 68.24 424.38
  C 74.70 423.65 80.17 420.62 85.58 417.51
  Q 111.09 402.84 130.86 394.11
  Q 145.78 387.52 154.74 385.01
  Q 157.79 384.16 162.28 385.04
  Z"
/>
<path fill="#fff5ee" d="
  M 443.99 424.05
  Q 409.53 465.06 362.49 487.67
  Q 319.25 508.47 271.24 511.37
  Q 267.17 511.62 263.12 512.00
  L 248.52 512.00
  Q 190.61 509.77 139.74 482.74
  Q 139.87 482.21 140.19 481.88
  Q 154.06 467.74 172.38 460.03
  Q 183.82 455.22 194.32 452.12
  Q 205.77 448.75 214.89 445.35
  Q 214.90 445.38 214.91 445.42
  Q 224.81 453.10 236.43 457.60
  C 284.90 476.35 327.48 425.89 348.23 389.51
  Q 349.26 387.69 353.69 385.28
  Q 358.14 384.23 360.28 384.93
  Q 384.54 392.87 407.04 404.91
  Q 421.33 412.56 435.40 420.64
  Q 438.39 422.35 443.99 424.05
  Z"
/>
</svg>
