<?xml version="1.0" encoding="UTF-8" standalone="no"?>
<!DOCTYPE svg PUBLIC "-//W3C//DTD SVG 1.1//EN" "http://www.w3.org/Graphics/SVG/1.1/DTD/svg11.dtd">
<svg xmlns="http://www.w3.org/2000/svg" version="1.1" viewBox="0.00 0.00 512.00 512.00">
<g stroke-width="2.00" fill="none" stroke-linecap="butt">
<path stroke="#a04160" vector-effect="non-scaling-stroke" d="
  M 347.43 39.63
  C 350.60 46.46 353.47 54.58 360.57 58.19
  Q 368.59 62.28 370.87 63.90
  C 382.28 72.00 388.10 84.71 388.75 98.75
  C 389.42 113.12 388.90 128.01 385.75 142.20
  Q 385.74 142.22 381.90 155.70
  Q 378.97 165.96 378.05 176.80"
/>
<path stroke="#9f776c" vector-effect="non-scaling-stroke" d="
  M 378.05 176.80
  Q 371.71 176.60 365.65 179.58"
/>
<path stroke="#9d7e7d" vector-effect="non-scaling-stroke" d="
  M 365.65 179.58
  Q 363.43 168.43 359.19 161.58
  C 354.41 153.85 353.54 149.57 353.88 139.91
  Q 354.06 134.58 354.07 129.25
  Q 354.09 110.33 341.06 96.94
  C 334.78 90.48 329.81 92.43 322.27 96.42
  C 285.98 115.62 245.73 123.04 205.20 114.63"
/>
<path stroke="#9f776c" vector-effect="non-scaling-stroke" d="
  M 205.20 114.63
  Q 204.91 114.44 204.96 114.34"
/>
<path stroke="#3b3b65" vector-effect="non-scaling-stroke" d="
  M 204.96 114.34
  Q 205.42 114.35 205.96 113.59
  C 216.70 98.29 220.86 79.95 213.50 62.40
  Q 212.39 59.76 211.21 57.12
  C 206.87 47.38 207.16 37.17 212.38 27.87
  Q 219.10 15.86 232.13 5.87"
/>
<path stroke="#997166" vector-effect="non-scaling-stroke" d="
  M 204.96 114.34
  Q 189.49 110.98 174.97 104.70
  C 167.99 101.69 164.76 104.30 163.38 111.48
  Q 160.78 124.99 161.67 138.72
  Q 162.08 144.99 161.87 147.31
  C 161.26 154.02 157.66 159.55 154.55 165.07
  Q 152.06 169.48 150.08 178.92
  Q 149.96 179.48 149.44 179.25
  Q 144.77 177.23 140.32 176.80"
/>
<path stroke="#9a3b5a" vector-effect="non-scaling-stroke" d="
  M 140.32 176.80
  Q 138.87 163.24 134.87 150.41
  C 132.58 143.09 131.44 137.25 130.39 130.33
  C 129.86 126.86 128.90 124.14 126.85 121.66
  C 118.04 111.05 112.73 98.36 108.70 85.31
  C 107.90 82.69 109.79 81.72 112.08 82.58
  Q 115.54 83.87 116.76 84.18
  C 118.88 84.72 119.72 83.33 119.25 81.44
  Q 117.33 73.74 116.59 65.59"
/>
<path stroke="#ff9ba2" vector-effect="non-scaling-stroke" d="
  M 443.99 424.05
  Q 438.39 422.35 435.40 420.64
  C 411.13 406.71 386.99 393.68 360.28 384.93
  Q 358.14 384.23 353.69 385.28"
/>
<path stroke="#fe7761" vector-effect="non-scaling-stroke" d="
  M 353.69 385.28
  Q 348.80 383.56 345.00 382.93
  Q 342.90 382.58 342.49 380.93"
/>
<path stroke="#a04160" vector-effect="non-scaling-stroke" d="
  M 342.49 380.93
  Q 357.52 352.83 362.37 321.01
  C 365.96 297.43 366.89 272.64 365.12 248.84"
/>
<path stroke="#fe6d58" vector-effect="non-scaling-stroke" d="
  M 365.12 248.84
  C 371.23 247.96 375.55 244.37 378.12 239.08
  Q 379.10 237.05 380.53 230.18
  Q 382.25 221.97 385.67 213.20"
/>
<path stroke="#fe7761" vector-effect="non-scaling-stroke" d="
  M 385.67 213.20
  Q 388.68 206.96 390.62 198.83
  C 392.78 189.82 388.91 177.52 378.05 176.80"
/>
<path stroke="#fe7761" vector-effect="non-scaling-stroke" d="
  M 140.32 176.80
  C 128.54 175.96 123.04 187.22 124.82 197.26
  Q 126.20 205.05 129.87 212.83"
/>
<path stroke="#fe6d58" vector-effect="non-scaling-stroke" d="
  M 129.87 212.83
  Q 134.64 224.82 134.92 228.33
  C 135.69 237.80 140.01 247.27 150.43 248.71"
/>
<path stroke="#9a3b5a" vector-effect="non-scaling-stroke" d="
  M 150.43 248.71
  Q 149.13 271.56 150.48 294.99
  C 152.21 325.07 158.68 354.83 173.50 381.40"
/>
<path stroke="#fe6d58" vector-effect="non-scaling-stroke" d="
  M 173.50 381.40
  L 162.28 385.04"
/>
<path stroke="#fe9496" vector-effect="non-scaling-stroke" d="
  M 162.28 385.04
  Q 157.79 384.16 154.74 385.01
  Q 146.29 387.38 130.80 394.07
  Q 111.00 402.63 85.36 417.57
  C 79.88 420.76 74.68 423.66 68.24 424.38"
/>
<path stroke="#fbb47e" vector-effect="non-scaling-stroke" d="
  M 365.65 179.58
  C 367.69 191.47 365.98 201.22 364.46 212.23"
/>
<path stroke="#fbaa75" vector-effect="non-scaling-stroke" d="
  M 364.46 212.23
  L 362.87 223.66"
/>
<path stroke="#9d7e7d" vector-effect="non-scaling-stroke" d="
  M 362.87 223.66
  C 358.57 243.68 348.37 269.76 330.15 280.73
  Q 329.70 281.00 329.42 280.56
  C 319.41 264.93 305.27 256.06 286.35 255.59"
/>
<path stroke="#fbb47e" vector-effect="non-scaling-stroke" d="
  M 286.35 255.59
  Q 288.49 250.26 285.63 247.46
  C 283.33 245.21 273.34 243.26 270.68 244.53
  Q 269.79 244.96 268.21 246.90
  Q 264.04 252.02 257.03 249.95
  C 251.98 248.46 252.38 242.83 245.99 244.12
  C 242.80 244.77 237.87 245.29 235.65 247.17
  Q 232.38 249.95 234.42 255.53"
/>
<path stroke="#9d7e7d" vector-effect="non-scaling-stroke" d="
  M 234.42 255.53
  L 226.48 256.14"
/>
<path stroke="#977877" vector-effect="non-scaling-stroke" d="
  M 226.48 256.14
  C 216.16 257.89 208.83 262.02 201.18 268.42"
/>
<path stroke="#fbb47e" vector-effect="non-scaling-stroke" d="
  M 201.18 268.42
  C 199.22 256.41 199.25 243.32 198.12 232.62
  Q 196.75 219.76 195.37 206.60"
/>
<path stroke="#fcd8bf" vector-effect="non-scaling-stroke" d="
  M 195.37 206.60
  L 203.11 208.85"
/>
<path stroke="#9d7e7d" vector-effect="non-scaling-stroke" d="
  M 203.11 208.85
  Q 210.56 210.94 218.67 210.10"
/>
<path stroke="#fcd8bf" vector-effect="non-scaling-stroke" d="
  M 218.67 210.10
  C 226.10 209.52 232.47 206.78 239.79 206.31
  A 0.70 0.70 0.0 0 0 240.09 205.00
  Q 232.41 200.58 224.84 194.84
  Q 224.39 194.49 223.68 194.74"
/>
<path stroke="#9d7e7d" vector-effect="non-scaling-stroke" d="
  M 223.68 194.74
  Q 223.50 194.54 223.32 194.31
  Q 223.15 194.08 222.91 193.96
  Q 212.31 188.53 200.99 192.20"
/>
<path stroke="#fcd8bf" vector-effect="non-scaling-stroke" d="
  M 200.99 192.20
  L 194.34 195.15"
/>
<path stroke="#fbb47e" vector-effect="non-scaling-stroke" d="
  M 194.34 195.15
  C 193.97 187.93 194.57 182.36 195.67 174.77"
/>
<path stroke="#977877" vector-effect="non-scaling-stroke" d="
  M 195.67 174.77
  L 207.07 175.77"
/>
<path stroke="#9d7e7d" vector-effect="non-scaling-stroke" d="
  M 207.07 175.77
  Q 223.62 178.30 241.23 183.38
  A 0.89 0.89 0.0 0 0 242.34 182.31
  C 241.30 178.09 240.46 171.20 235.51 169.91
  Q 223.97 166.91 208.19 165.13"
/>
<path stroke="#977877" vector-effect="non-scaling-stroke" d="
  M 208.19 165.13
  L 198.91 164.20"
/>
<path stroke="#fbb47e" vector-effect="non-scaling-stroke" d="
  M 198.91 164.20
  Q 205.46 152.52 204.25 137.25
  Q 203.57 128.67 205.20 114.63"
/>
<path stroke="#977877" vector-effect="non-scaling-stroke" d="
  M 301.56 166.17
  Q 292.26 167.53 283.75 169.49
  C 277.72 170.88 276.89 177.42 275.88 182.45
  A 0.89 0.89 0.0 0 0 276.96 183.49
  L 305.07 176.77"
/>
<path stroke="#9d7e7d" vector-effect="non-scaling-stroke" d="
  M 305.07 176.77
  C 318.95 174.02 331.88 172.24 342.23 183.71
  Q 343.77 185.41 343.52 183.13
  Q 342.86 177.12 338.62 171.60
  C 333.57 165.04 326.09 164.15 318.50 164.51
  Q 310.52 164.89 301.56 166.17"
/>
<path stroke="#3b3b65" vector-effect="non-scaling-stroke" d="
  M 305.07 176.77
  Q 298.25 173.56 301.56 166.17"
/>
<path stroke="#fcd8bf" vector-effect="non-scaling-stroke" d="
  M 294.56 194.99
  Q 293.75 194.55 292.48 195.53
  Q 285.57 200.86 278.51 204.84
  Q 276.68 205.87 278.74 206.29
  C 280.16 206.58 281.91 206.42 283.41 206.79
  C 288.77 208.10 293.80 209.93 299.56 209.96"
/>
<path stroke="#9d7e7d" vector-effect="non-scaling-stroke" d="
  M 299.56 209.96
  C 303.68 211.21 311.22 209.95 315.14 208.90"
/>
<path stroke="#fcd8bf" vector-effect="non-scaling-stroke" d="
  M 315.14 208.90
  C 321.14 207.98 326.77 204.77 332.69 203.33
  A 0.77 0.77 0.0 0 0 333.04 202.03
  Q 326.53 195.76 318.48 192.58
  Q 318.05 192.41 317.51 192.56"
/>
<path stroke="#9d7e7d" vector-effect="non-scaling-stroke" d="
  M 317.51 192.56
  Q 317.14 192.23 316.72 192.10
  Q 305.67 188.76 295.40 193.90
  Q 295.11 194.05 294.56 194.99"
/>
<path stroke="#a09bad" vector-effect="non-scaling-stroke" d="
  M 317.51 192.56
  Q 322.12 201.27 315.14 208.90"
/>
<path stroke="#a09bad" vector-effect="non-scaling-stroke" d="
  M 299.56 209.96
  Q 292.00 204.14 294.56 194.99"
/>
<path stroke="#997166" vector-effect="non-scaling-stroke" d="
  M 198.91 164.20
  C 190.08 164.22 182.36 165.81 177.76 173.97
  Q 175.11 178.67 174.70 183.02
  Q 174.43 185.89 176.31 183.71
  Q 183.62 175.28 195.67 174.77"
/>
<path stroke="#fed1ae" vector-effect="non-scaling-stroke" d="
  M 194.34 195.15
  L 185.52 201.79
  A 0.94 0.94 0.0 0 0 185.79 203.44
  L 195.37 206.60"
/>
<path stroke="#997166" vector-effect="non-scaling-stroke" d="
  M 201.18 268.42
  Q 194.79 274.72 190.08 282.58
  A 0.48 0.47 -60.9 0 1 189.45 282.76
  C 167.70 271.77 158.34 245.29 152.69 223.45"
/>
<path stroke="#fda364" vector-effect="non-scaling-stroke" d="
  M 152.69 223.45
  L 151.32 212.88
  Q 151.24 212.24 150.70 212.59
  C 149.98 213.06 149.23 213.95 148.65 214.30
  Q 139.67 219.75 129.87 212.83"
/>
<path stroke="#3b3b65" vector-effect="non-scaling-stroke" d="
  M 208.19 165.13
  Q 204.26 169.28 207.07 175.77"
/>
<path stroke="#fda364" vector-effect="non-scaling-stroke" d="
  M 385.67 213.20
  Q 373.96 220.62 364.46 212.23"
/>
<path stroke="#a09bad" vector-effect="non-scaling-stroke" d="
  M 223.68 194.74
  Q 226.53 203.85 218.67 210.10"
/>
<path stroke="#a09bad" vector-effect="non-scaling-stroke" d="
  M 203.11 208.85
  Q 196.10 201.11 200.99 192.20"
/>
<path stroke="#3b3b65" vector-effect="non-scaling-stroke" d="
  M 216.72 200.03
  A 4.86 4.86 0.0 0 0 211.86 195.17
  A 4.86 4.86 0.0 0 0 207.00 200.03
  A 4.86 4.86 0.0 0 0 211.86 204.89
  A 4.86 4.86 0.0 0 0 216.72 200.03"
/>
<path stroke="#3b3b65" vector-effect="non-scaling-stroke" d="
  M 311.34 200.03
  A 4.88 4.88 0.0 0 0 306.46 195.15
  A 4.88 4.88 0.0 0 0 301.58 200.03
  A 4.88 4.88 0.0 0 0 306.46 204.91
  A 4.88 4.88 0.0 0 0 311.34 200.03"
/>
<path stroke="#99675d" vector-effect="non-scaling-stroke" d="
  M 152.69 223.45
  L 150.43 248.71"
/>
<path stroke="#9f6d63" vector-effect="non-scaling-stroke" d="
  M 365.12 248.84
  L 362.87 223.66"
/>
<path stroke="#3b3b65" vector-effect="non-scaling-stroke" d="
  M 226.48 256.14
  Q 222.95 265.08 223.31 272.25
  Q 223.97 285.37 236.85 293.58"
/>
<path stroke="#997166" vector-effect="non-scaling-stroke" d="
  M 236.85 293.58
  L 230.09 293.92"
/>
<path stroke="#977877" vector-effect="non-scaling-stroke" d="
  M 230.09 293.92
  Q 221.55 293.87 214.93 299.81
  Q 214.60 300.11 214.78 300.51
  Q 216.03 303.18 219.53 311.75
  C 225.81 327.11 243.62 330.63 259.21 330.13"
/>
<path stroke="#3b3b65" vector-effect="non-scaling-stroke" d="
  M 259.21 330.13
  Q 257.54 332.76 252.01 340.01
  C 247.43 346.02 244.92 355.23 245.99 362.70
  C 247.19 371.10 251.31 375.98 256.81 383.44
  C 263.23 392.15 267.33 403.94 266.69 414.63
  Q 265.97 426.72 258.30 437.55"
/>
<path stroke="#997166" vector-effect="non-scaling-stroke" d="
  M 258.30 437.55
  Q 243.34 436.79 227.46 430.39"
/>
<path stroke="#99675d" vector-effect="non-scaling-stroke" d="
  M 227.46 430.39
  Q 192.41 414.97 173.50 381.40"
/>
<path stroke="#9f776c" vector-effect="non-scaling-stroke" d="
  M 342.49 380.93
  C 323.49 412.50 295.85 433.88 258.30 437.55"
/>
<path stroke="#9d7e7d" vector-effect="non-scaling-stroke" d="
  M 259.21 330.13
  Q 270.61 330.80 281.50 326.48
  C 291.24 322.62 295.45 314.87 298.91 304.98
  Q 299.55 303.15 303.01 298.06
  Q 303.32 297.59 302.85 297.29
  Q 296.79 293.34 291.62 294.06"
/>
<path stroke="#9f776c" vector-effect="non-scaling-stroke" d="
  M 291.62 294.06
  Q 275.89 293.70 263.08 288.88
  C 261.59 288.32 259.96 288.09 258.61 288.59
  Q 247.29 292.82 236.85 293.58"
/>
<path stroke="#9f776c" vector-effect="non-scaling-stroke" d="
  M 234.42 255.53
  Q 236.54 257.03 238.97 257.39
  C 240.76 257.65 242.71 256.84 244.70 256.77
  Q 245.25 256.75 245.69 257.08
  Q 260.57 268.30 275.43 256.94
  Q 275.85 256.62 276.37 256.71
  L 281.57 257.61
  A 0.88 0.82 36.3 0 0 282.08 257.55
  L 286.35 255.59"
/>
<path stroke="#fbb47e" vector-effect="non-scaling-stroke" d="
  M 291.62 294.06
  Q 285.62 300.03 276.51 302.27
  C 273.08 303.11 264.58 299.66 260.89 298.57
  A 1.65 1.61 43.7 0 0 259.94 298.58
  Q 254.48 300.30 249.04 302.05
  C 244.88 303.38 238.55 299.98 232.24 297.34
  Q 230.24 296.50 230.09 293.92"
/>
<path stroke="#fbb47e" vector-effect="non-scaling-stroke" d="
  M 269.9616 317.4199
  A 5.47 5.47 0.0 0 0 264.5204 311.9213
  L 256.4205 311.8789
  A 5.47 5.47 0.0 0 0 250.9219 317.3202
  L 250.9184 318.0001
  A 5.47 5.47 0.0 0 0 256.3596 323.4987
  L 264.4595 323.5411
  A 5.47 5.47 0.0 0 0 269.9581 318.0998
  L 269.9616 317.4199"
/>
<path stroke="#fed1ae" vector-effect="non-scaling-stroke" d="
  M 353.69 385.28
  Q 349.26 387.69 348.23 389.51
  C 330.32 420.92 295.14 464.30 254.23 461.57
  C 239.95 460.61 226.13 454.13 214.91 445.42"
/>
<path stroke="#fda364" vector-effect="non-scaling-stroke" d="
  M 214.91 445.42
  Q 223.52 439.70 227.46 430.39"
/>
<path stroke="#fec7a5" vector-effect="non-scaling-stroke" d="
  M 214.91 445.42
  Q 214.90 445.38 214.89 445.35"
/>
<path stroke="#fdc099" vector-effect="non-scaling-stroke" d="
  M 214.89 445.35
  C 195.51 430.29 180.16 410.84 167.96 389.80
  Q 166.71 387.64 162.28 385.04"
/>
<path stroke="#feeee2" vector-effect="non-scaling-stroke" d="
  M 214.89 445.35
  C 201.24 450.43 186.58 454.06 172.38 460.03
  Q 154.06 467.74 140.19 481.88
  Q 139.87 482.21 139.74 482.74"
/>
</g>
<path fill="#41416b" d="
  M 262.88 0.00
  L 272.51 0.00
  C 301.18 2.07 330.73 15.57 347.43 39.63
  C 350.60 46.46 353.47 54.58 360.57 58.19
  Q 368.59 62.28 370.87 63.90
  C 382.28 72.00 388.10 84.71 388.75 98.75
  C 389.42 113.12 388.90 128.01 385.75 142.20
  Q 385.74 142.22 381.90 155.70
  Q 378.97 165.96 378.05 176.80
  Q 371.71 176.60 365.65 179.58
  Q 363.43 168.43 359.19 161.58
  C 354.41 153.85 353.54 149.57 353.88 139.91
  Q 354.06 134.58 354.07 129.25
  Q 354.09 110.33 341.06 96.94
  C 334.78 90.48 329.81 92.43 322.27 96.42
  C 285.98 115.62 245.73 123.04 205.20 114.63
  Q 204.91 114.44 204.96 114.34
  Q 205.42 114.35 205.96 113.59
  C 216.70 98.29 220.86 79.95 213.50 62.40
  Q 212.39 59.76 211.21 57.12
  C 206.87 47.38 207.16 37.17 212.38 27.87
  Q 219.10 15.86 232.13 5.87
  Q 246.23 1.19 262.88 0.00
  Z"
/>
<path fill="#35355e" d="
  M 232.13 5.87
  Q 219.10 15.86 212.38 27.87
  C 207.16 37.17 206.87 47.38 211.21 57.12
  Q 212.39 59.76 213.50 62.40
  C 220.86 79.95 216.70 98.29 205.96 113.59
  Q 205.42 114.35 204.96 114.34
  Q 189.49 110.98 174.97 104.70
  C 167.99 101.69 164.76 104.30 163.38 111.48
  Q 160.78 124.99 161.67 138.72
  Q 162.08 144.99 161.87 147.31
  C 161.26 154.02 157.66 159.55 154.55 165.07
  Q 152.06 169.48 150.08 178.92
  Q 149.96 179.48 149.44 179.25
  Q 144.77 177.23 140.32 176.80
  Q 138.87 163.24 134.87 150.41
  C 132.58 143.09 131.44 137.25 130.39 130.33
  C 129.86 126.86 128.90 124.14 126.85 121.66
  C 118.04 111.05 112.73 98.36 108.70 85.31
  C 107.90 82.69 109.79 81.72 112.08 82.58
  Q 115.54 83.87 116.76 84.18
  C 118.88 84.72 119.72 83.33 119.25 81.44
  Q 117.33 73.74 116.59 65.59
  Q 115.72 42.70 124.52 21.39
  Q 126.18 17.36 127.85 16.12
  C 131.00 13.79 134.00 15.37 136.67 17.93
  C 146.00 26.92 157.95 32.99 170.99 29.98
  Q 177.21 28.55 187.24 23.93
  C 199.41 18.33 216.60 9.95 232.13 5.87
  Z"
/>
<path fill="#ff4155" d="
  M 347.43 39.63
  C 501.13 102.97 550.95 295.16 443.99 424.05
  Q 438.39 422.35 435.40 420.64
  C 411.13 406.71 386.99 393.68 360.28 384.93
  Q 358.14 384.23 353.69 385.28
  Q 348.80 383.56 345.00 382.93
  Q 342.90 382.58 342.49 380.93
  Q 357.52 352.83 362.37 321.01
  C 365.96 297.43 366.89 272.64 365.12 248.84
  C 371.23 247.96 375.55 244.37 378.12 239.08
  Q 379.10 237.05 380.53 230.18
  Q 382.25 221.97 385.67 213.20
  Q 388.68 206.96 390.62 198.83
  C 392.78 189.82 388.91 177.52 378.05 176.80
  Q 378.97 165.96 381.90 155.70
  Q 385.74 142.22 385.75 142.20
  C 388.90 128.01 389.42 113.12 388.75 98.75
  C 388.10 84.71 382.28 72.00 370.87 63.90
  Q 368.59 62.28 360.57 58.19
  C 353.47 54.58 350.60 46.46 347.43 39.63
  Z"
/>
<path fill="#ff4155" d="
  M 116.59 65.59
  Q 117.33 73.74 119.25 81.44
  C 119.72 83.33 118.88 84.72 116.76 84.18
  Q 115.54 83.87 112.08 82.58
  C 109.79 81.72 107.90 82.69 108.70 85.31
  C 112.73 98.36 118.04 111.05 126.85 121.66
  C 128.90 124.14 129.86 126.86 130.39 130.33
  C 131.44 137.25 132.58 143.09 134.87 150.41
  Q 138.87 163.24 140.32 176.80
  C 128.54 175.96 123.04 187.22 124.82 197.26
  Q 126.20 205.05 129.87 212.83
  Q 134.64 224.82 134.92 228.33
  C 135.69 237.80 140.01 247.27 150.43 248.71
  Q 149.13 271.56 150.48 294.99
  C 152.21 325.07 158.68 354.83 173.50 381.40
  L 162.28 385.04
  Q 157.79 384.16 154.74 385.01
  Q 146.29 387.38 130.80 394.07
  Q 111.00 402.63 85.36 417.57
  C 79.88 420.76 74.68 423.66 68.24 424.38
  C -24.19 313.12 -1.95 148.20 116.59 65.59
  Z"
/>
<path fill="#f9ba8f" d="
  M 365.65 179.58
  C 367.69 191.47 365.98 201.22 364.46 212.23
  L 362.87 223.66
  C 358.57 243.68 348.37 269.76 330.15 280.73
  Q 329.70 281.00 329.42 280.56
  C 319.41 264.93 305.27 256.06 286.35 255.59
  Q 288.49 250.26 285.63 247.46
  C 283.33 245.21 273.34 243.26 270.68 244.53
  Q 269.79 244.96 268.21 246.90
  Q 264.04 252.02 257.03 249.95
  C 251.98 248.46 252.38 242.83 245.99 244.12
  C 242.80 244.77 237.87 245.29 235.65 247.17
  Q 232.38 249.95 234.42 255.53
  L 226.48 256.14
  C 216.16 257.89 208.83 262.02 201.18 268.42
  C 199.22 256.41 199.25 243.32 198.12 232.62
  Q 196.75 219.76 195.37 206.60
  L 203.11 208.85
  Q 210.56 210.94 218.67 210.10
  C 226.10 209.52 232.47 206.78 239.79 206.31
  A 0.70 0.70 0.0 0 0 240.09 205.00
  Q 232.41 200.58 224.84 194.84
  Q 224.39 194.49 223.68 194.74
  Q 223.50 194.54 223.32 194.31
  Q 223.15 194.08 222.91 193.96
  Q 212.31 188.53 200.99 192.20
  L 194.34 195.15
  C 193.97 187.93 194.57 182.36 195.67 174.77
  L 207.07 175.77
  Q 223.62 178.30 241.23 183.38
  A 0.89 0.89 0.0 0 0 242.34 182.31
  C 241.30 178.09 240.46 171.20 235.51 169.91
  Q 223.97 166.91 208.19 165.13
  L 198.91 164.20
  Q 205.46 152.52 204.25 137.25
  Q 203.57 128.67 205.20 114.63
  C 245.73 123.04 285.98 115.62 322.27 96.42
  C 329.81 92.43 334.78 90.48 341.06 96.94
  Q 354.09 110.33 354.07 129.25
  Q 354.06 134.58 353.88 139.91
  C 353.54 149.57 354.41 153.85 359.19 161.58
  Q 363.43 168.43 365.65 179.58
  Z
  M 301.56 166.17
  Q 292.26 167.53 283.75 169.49
  C 277.72 170.88 276.89 177.42 275.88 182.45
  A 0.89 0.89 0.0 0 0 276.96 183.49
  L 305.07 176.77
  C 318.95 174.02 331.88 172.24 342.23 183.71
  Q 343.77 185.41 343.52 183.13
  Q 342.86 177.12 338.62 171.60
  C 333.57 165.04 326.09 164.15 318.50 164.51
  Q 310.52 164.89 301.56 166.17
  Z
  M 294.56 194.99
  Q 293.75 194.55 292.48 195.53
  Q 285.57 200.86 278.51 204.84
  Q 276.68 205.87 278.74 206.29
  C 280.16 206.58 281.91 206.42 283.41 206.79
  C 288.77 208.10 293.80 209.93 299.56 209.96
  C 303.68 211.21 311.22 209.95 315.14 208.90
  C 321.14 207.98 326.77 204.77 332.69 203.33
  A 0.77 0.77 0.0 0 0 333.04 202.03
  Q 326.53 195.76 318.48 192.58
  Q 318.05 192.41 317.51 192.56
  Q 317.14 192.23 316.72 192.10
  Q 305.67 188.76 295.40 193.90
  Q 295.11 194.05 294.56 194.99
  Z"
/>
<path fill="#fcad6d" d="
  M 204.96 114.34
  Q 204.91 114.44 205.20 114.63
  Q 203.57 128.67 204.25 137.25
  Q 205.46 152.52 198.91 164.20
  C 190.08 164.22 182.36 165.81 177.76 173.97
  Q 175.11 178.67 174.70 183.02
  Q 174.43 185.89 176.31 183.71
  Q 183.62 175.28 195.67 174.77
  C 194.57 182.36 193.97 187.93 194.34 195.15
  L 185.52 201.79
  A 0.94 0.94 0.0 0 0 185.79 203.44
  L 195.37 206.60
  Q 196.75 219.76 198.12 232.62
  C 199.25 243.32 199.22 256.41 201.18 268.42
  Q 194.79 274.72 190.08 282.58
  A 0.48 0.47 -60.9 0 1 189.45 282.76
  C 167.70 271.77 158.34 245.29 152.69 223.45
  L 151.32 212.88
  Q 151.24 212.24 150.70 212.59
  C 149.98 213.06 149.23 213.95 148.65 214.30
  Q 139.67 219.75 129.87 212.83
  Q 126.20 205.05 124.82 197.26
  C 123.04 187.22 128.54 175.96 140.32 176.80
  Q 144.77 177.23 149.44 179.25
  Q 149.96 179.48 150.08 178.92
  Q 152.06 169.48 154.55 165.07
  C 157.66 159.55 161.26 154.02 161.87 147.31
  Q 162.08 144.99 161.67 138.72
  Q 160.78 124.99 163.38 111.48
  C 164.76 104.30 167.99 101.69 174.97 104.70
  Q 189.49 110.98 204.96 114.34
  Z"
/>
<path fill="#35355e" d="
  M 198.91 164.20
  L 208.19 165.13
  Q 204.26 169.28 207.07 175.77
  L 195.67 174.77
  Q 183.62 175.28 176.31 183.71
  Q 174.43 185.89 174.70 183.02
  Q 175.11 178.67 177.76 173.97
  C 182.36 165.81 190.08 164.22 198.91 164.20
  Z"
/>
<path fill="#41416b" d="
  M 305.07 176.77
  Q 298.25 173.56 301.56 166.17
  Q 310.52 164.89 318.50 164.51
  C 326.09 164.15 333.57 165.04 338.62 171.60
  Q 342.86 177.12 343.52 183.13
  Q 343.77 185.41 342.23 183.71
  C 331.88 172.24 318.95 174.02 305.07 176.77
  Z"
/>
<path fill="#41416b" d="
  M 208.19 165.13
  Q 223.97 166.91 235.51 169.91
  C 240.46 171.20 241.30 178.09 242.34 182.31
  A 0.89 0.89 0.0 0 1 241.23 183.38
  Q 223.62 178.30 207.07 175.77
  Q 204.26 169.28 208.19 165.13
  Z"
/>
<path fill="#35355e" d="
  M 301.56 166.17
  Q 298.25 173.56 305.07 176.77
  L 276.96 183.49
  A 0.89 0.89 0.0 0 1 275.88 182.45
  C 276.89 177.42 277.72 170.88 283.75 169.49
  Q 292.26 167.53 301.56 166.17
  Z"
/>
<path fill="#fcad6d" d="
  M 378.05 176.80
  C 388.91 177.52 392.78 189.82 390.62 198.83
  Q 388.68 206.96 385.67 213.20
  Q 373.96 220.62 364.46 212.23
  C 365.98 201.22 367.69 191.47 365.65 179.58
  Q 371.71 176.60 378.05 176.80
  Z"
/>
<path fill="#41416b" d="
  M 223.68 194.74
  Q 226.53 203.85 218.67 210.10
  Q 210.56 210.94 203.11 208.85
  Q 196.10 201.11 200.99 192.20
  Q 212.31 188.53 222.91 193.96
  Q 223.15 194.08 223.32 194.31
  Q 223.50 194.54 223.68 194.74
  Z
  M 216.72 200.03
  A 4.86 4.86 0.0 0 0 211.86 195.17
  A 4.86 4.86 0.0 0 0 207.00 200.03
  A 4.86 4.86 0.0 0 0 211.86 204.89
  A 4.86 4.86 0.0 0 0 216.72 200.03
  Z"
/>
<path fill="#41416b" d="
  M 317.51 192.56
  Q 322.12 201.27 315.14 208.90
  C 311.22 209.95 303.68 211.21 299.56 209.96
  Q 292.00 204.14 294.56 194.99
  Q 295.11 194.05 295.40 193.90
  Q 305.67 188.76 316.72 192.10
  Q 317.14 192.23 317.51 192.56
  Z
  M 311.34 200.03
  A 4.88 4.88 0.0 0 0 306.46 195.15
  A 4.88 4.88 0.0 0 0 301.58 200.03
  A 4.88 4.88 0.0 0 0 306.46 204.91
  A 4.88 4.88 0.0 0 0 311.34 200.03
  Z"
/>
<path fill="#fff5ee" d="
  M 200.99 192.20
  Q 196.10 201.11 203.11 208.85
  L 195.37 206.60
  L 185.79 203.44
  A 0.94 0.94 0.0 0 1 185.52 201.79
  L 194.34 195.15
  L 200.99 192.20
  Z"
/>
<path fill="#fff5ee" d="
  M 317.51 192.56
  Q 318.05 192.41 318.48 192.58
  Q 326.53 195.76 333.04 202.03
  A 0.77 0.77 0.0 0 1 332.69 203.33
  C 326.77 204.77 321.14 207.98 315.14 208.90
  Q 322.12 201.27 317.51 192.56
  Z"
/>
<path fill="#fff5ee" d="
  M 223.68 194.74
  Q 224.39 194.49 224.84 194.84
  Q 232.41 200.58 240.09 205.00
  A 0.70 0.70 0.0 0 1 239.79 206.31
  C 232.47 206.78 226.10 209.52 218.67 210.10
  Q 226.53 203.85 223.68 194.74
  Z"
/>
<path fill="#fff5ee" d="
  M 294.56 194.99
  Q 292.00 204.14 299.56 209.96
  C 293.80 209.93 288.77 208.10 283.41 206.79
  C 281.91 206.42 280.16 206.58 278.74 206.29
  Q 276.68 205.87 278.51 204.84
  Q 285.57 200.86 292.48 195.53
  Q 293.75 194.55 294.56 194.99
  Z"
/>
<circle fill="#35355e" cx="211.86" cy="200.03" r="4.86"/>
<circle fill="#35355e" cx="306.46" cy="200.03" r="4.88"/>
<path fill="#fd995b" d="
  M 152.69 223.45
  L 150.43 248.71
  C 140.01 247.27 135.69 237.80 134.92 228.33
  Q 134.64 224.82 129.87 212.83
  Q 139.67 219.75 148.65 214.30
  C 149.23 213.95 149.98 213.06 150.70 212.59
  Q 151.24 212.24 151.32 212.88
  L 152.69 223.45
  Z"
/>
<path fill="#fd995b" d="
  M 364.46 212.23
  Q 373.96 220.62 385.67 213.20
  Q 382.25 221.97 380.53 230.18
  Q 379.10 237.05 378.12 239.08
  C 375.55 244.37 371.23 247.96 365.12 248.84
  L 362.87 223.66
  L 364.46 212.23
  Z"
/>
<path fill="#35355e" d="
  M 152.69 223.45
  C 158.34 245.29 167.70 271.77 189.45 282.76
  A 0.48 0.47 -60.9 0 0 190.08 282.58
  Q 194.79 274.72 201.18 268.42
  C 208.83 262.02 216.16 257.89 226.48 256.14
  Q 222.95 265.08 223.31 272.25
  Q 223.97 285.37 236.85 293.58
  L 230.09 293.92
  Q 221.55 293.87 214.93 299.81
  Q 214.60 300.11 214.78 300.51
  Q 216.03 303.18 219.53 311.75
  C 225.81 327.11 243.62 330.63 259.21 330.13
  Q 257.54 332.76 252.01 340.01
  C 247.43 346.02 244.92 355.23 245.99 362.70
  C 247.19 371.10 251.31 375.98 256.81 383.44
  C 263.23 392.15 267.33 403.94 266.69 414.63
  Q 265.97 426.72 258.30 437.55
  Q 243.34 436.79 227.46 430.39
  Q 192.41 414.97 173.50 381.40
  C 158.68 354.83 152.21 325.07 150.48 294.99
  Q 149.13 271.56 150.43 248.71
  L 152.69 223.45
  Z"
/>
<path fill="#41416b" d="
  M 362.87 223.66
  L 365.12 248.84
  C 366.89 272.64 365.96 297.43 362.37 321.01
  Q 357.52 352.83 342.49 380.93
  C 323.49 412.50 295.85 433.88 258.30 437.55
  Q 265.97 426.72 266.69 414.63
  C 267.33 403.94 263.23 392.15 256.81 383.44
  C 251.31 375.98 247.19 371.10 245.99 362.70
  C 244.92 355.23 247.43 346.02 252.01 340.01
  Q 257.54 332.76 259.21 330.13
  Q 270.61 330.80 281.50 326.48
  C 291.24 322.62 295.45 314.87 298.91 304.98
  Q 299.55 303.15 303.01 298.06
  Q 303.32 297.59 302.85 297.29
  Q 296.79 293.34 291.62 294.06
  Q 275.89 293.70 263.08 288.88
  C 261.59 288.32 259.96 288.09 258.61 288.59
  Q 247.29 292.82 236.85 293.58
  Q 223.97 285.37 223.31 272.25
  Q 222.95 265.08 226.48 256.14
  L 234.42 255.53
  Q 236.54 257.03 238.97 257.39
  C 240.76 257.65 242.71 256.84 244.70 256.77
  Q 245.25 256.75 245.69 257.08
  Q 260.57 268.30 275.43 256.94
  Q 275.85 256.62 276.37 256.71
  L 281.57 257.61
  A 0.88 0.82 36.3 0 0 282.08 257.55
  L 286.35 255.59
  C 305.27 256.06 319.41 264.93 329.42 280.56
  Q 329.70 281.00 330.15 280.73
  C 348.37 269.76 358.57 243.68 362.87 223.66
  Z"
/>
<path fill="#fcad6d" d="
  M 286.35 255.59
  L 282.08 257.55
  A 0.88 0.82 36.3 0 1 281.57 257.61
  L 276.37 256.71
  Q 275.85 256.62 275.43 256.94
  Q 260.57 268.30 245.69 257.08
  Q 245.25 256.75 244.70 256.77
  C 242.71 256.84 240.76 257.65 238.97 257.39
  Q 236.54 257.03 234.42 255.53
  Q 232.38 249.95 235.65 247.17
  C 237.87 245.29 242.80 244.77 245.99 244.12
  C 252.38 242.83 251.98 248.46 257.03 249.95
  Q 264.04 252.02 268.21 246.90
  Q 269.79 244.96 270.68 244.53
  C 273.34 243.26 283.33 245.21 285.63 247.46
  Q 288.49 250.26 286.35 255.59
  Z"
/>
<path fill="#fcad6d" d="
  M 291.62 294.06
  Q 285.62 300.03 276.51 302.27
  C 273.08 303.11 264.58 299.66 260.89 298.57
  A 1.65 1.61 43.7 0 0 259.94 298.58
  Q 254.48 300.30 249.04 302.05
  C 244.88 303.38 238.55 299.98 232.24 297.34
  Q 230.24 296.50 230.09 293.92
  L 236.85 293.58
  Q 247.29 292.82 258.61 288.59
  C 259.96 288.09 261.59 288.32 263.08 288.88
  Q 275.89 293.70 291.62 294.06
  Z"
/>
<path fill="#f9ba8f" d="
  M 291.62 294.06
  Q 296.79 293.34 302.85 297.29
  Q 303.32 297.59 303.01 298.06
  Q 299.55 303.15 298.91 304.98
  C 295.45 314.87 291.24 322.62 281.50 326.48
  Q 270.61 330.80 259.21 330.13
  C 243.62 330.63 225.81 327.11 219.53 311.75
  Q 216.03 303.18 214.78 300.51
  Q 214.60 300.11 214.93 299.81
  Q 221.55 293.87 230.09 293.92
  Q 230.24 296.50 232.24 297.34
  C 238.55 299.98 244.88 303.38 249.04 302.05
  Q 254.48 300.30 259.94 298.58
  A 1.65 1.61 43.7 0 1 260.89 298.57
  C 264.58 299.66 273.08 303.11 276.51 302.27
  Q 285.62 300.03 291.62 294.06
  Z
  M 269.9616 317.4199
  A 5.47 5.47 0.0 0 0 264.5204 311.9213
  L 256.4205 311.8789
  A 5.47 5.47 0.0 0 0 250.9219 317.3202
  L 250.9184 318.0001
  A 5.47 5.47 0.0 0 0 256.3596 323.4987
  L 264.4595 323.5411
  A 5.47 5.47 0.0 0 0 269.9581 318.0998
  L 269.9616 317.4199
  Z"
/>
<rect fill="#fcad6d" x="-9.52" y="-5.81" transform="translate(260.44,317.71) rotate(0.3)" width="19.04" height="11.62" rx="5.47"/>
<path fill="#fcad6d" d="
  M 342.49 380.93
  Q 342.90 382.58 345.00 382.93
  Q 348.80 383.56 353.69 385.28
  Q 349.26 387.69 348.23 389.51
  C 330.32 420.92 295.14 464.30 254.23 461.57
  C 239.95 460.61 226.13 454.13 214.91 445.42
  Q 223.52 439.70 227.46 430.39
  Q 243.34 436.79 258.30 437.55
  C 295.85 433.88 323.49 412.50 342.49 380.93
  Z"
/>
<path fill="#fd995b" d="
  M 173.50 381.40
  Q 192.41 414.97 227.46 430.39
  Q 223.52 439.70 214.91 445.42
  Q 214.90 445.38 214.89 445.35
  C 195.51 430.29 180.16 410.84 167.96 389.80
  Q 166.71 387.64 162.28 385.04
  L 173.50 381.40
  Z"
/>
<path fill="#fce6d6" d="
  M 162.28 385.04
  Q 166.71 387.64 167.96 389.80
  C 180.16 410.84 195.51 430.29 214.89 445.35
  C 201.24 450.43 186.58 454.06 172.38 460.03
  Q 154.06 467.74 140.19 481.88
  Q 139.87 482.21 139.74 482.74
  Q 98.25 460.41 68.24 424.38
  C 74.68 423.66 79.88 420.76 85.36 417.57
  Q 111.00 402.63 130.80 394.07
  Q 146.29 387.38 154.74 385.01
  Q 157.79 384.16 162.28 385.04
  Z"
/>
<path fill="#fff5ee" d="
  M 443.99 424.05
  C 400.45 475.87 338.60 507.30 271.24 511.37
  Q 267.17 511.62 263.12 512.00
  L 248.52 512.00
  Q 190.61 509.77 139.74 482.74
  Q 139.87 482.21 140.19 481.88
  Q 154.06 467.74 172.38 460.03
  C 186.58 454.06 201.24 450.43 214.89 445.35
  Q 214.90 445.38 214.91 445.42
  C 226.13 454.13 239.95 460.61 254.23 461.57
  C 295.14 464.30 330.32 420.92 348.23 389.51
  Q 349.26 387.69 353.69 385.28
  Q 358.14 384.23 360.28 384.93
  C 386.99 393.68 411.13 406.71 435.40 420.64
  Q 438.39 422.35 443.99 424.05
  Z"
/>
</svg>
